<?xml version="1.0" encoding="UTF-8"?>
<svg id="Layer_1" data-name="Layer 1" xmlns="http://www.w3.org/2000/svg" version="1.1" viewBox="0 0 1887 590">
  <defs>
    <style>
      .cls-1 {
        fill: #fff;
        stroke-width: 0px;
      }
    </style>
  </defs>
  <path class="cls-1" d="M339.8,478.8c0-10.7,3.3-19.3,9.9-26,6.6-6.7,15.2-10,25.7-10h122.5c10.5,0,19.1,3.3,25.7,10,6.6,6.7,9.9,15.3,9.9,26s0,5-.2,6.6h-21.5c.1-1.4.2-3.4.2-6-.4-6.5-1.8-11.4-4.2-14.7-2.3-3.3-6.8-4.9-13.3-4.9h-115.5c-11.7,0-17.5,5.9-17.5,17.7v69.3c0,11.7,5.8,17.5,17.5,17.5h115.5c5.5,0,9.8-1.5,12.8-4.5,3-3,4.5-7.3,4.5-13v-20h-72.2v-17h93.8l.2,35.8c0,10.5-3.3,19.1-10,25.8-6.7,6.7-15.2,10-25.6,10h-122.5c-10.5,0-19.1-3.3-25.7-10s-9.9-15.3-9.9-25.8v-66.7Z"/>
  <path class="cls-1" d="M690.6,466.4l45.2,64.1h-90.6l45.4-64.1ZM680.5,442.8l-97.4,138.5h26.6l23.7-33.5h114.4l23.4,33.5h26.6l-97.4-138.5h-20Z"/>
  <polygon class="cls-1" points="1043.2 442.8 960.1 559.8 877 442.8 856.1 442.8 856.1 581.3 877.9 581.3 877.9 478.4 950.1 581.3 970.3 581.3 1042.6 478.4 1042.6 581.3 1064.3 581.3 1064.3 442.8 1043.2 442.8"/>
  <polygon class="cls-1" points="1131.2 442.8 1131.2 581.3 1305.7 581.3 1305.7 564.2 1152.8 564.2 1152.8 520.3 1296.6 520.3 1296.6 503.3 1152.8 503.3 1152.8 459.8 1305.7 459.8 1305.7 442.8 1131.2 442.8"/>
  <g>
    <path class="cls-1" d="M1400.1,581.3c-10.9,0-19.6-3.4-26-10.3-6.4-6.9-9.6-15.8-9.6-26.7h21.7c.1,6.2,1.4,11.2,3.6,14.7,2.3,3.6,6.9,5.3,13.8,5.3h104.2c6.5,0,11.1-1.8,13.6-5.3,2.6-3.5,3.8-8.7,3.8-15.3s0-2.6-.1-4.7c0-2.1-.1-3.8-.1-4.9,0-4.8-1.8-8.5-5.3-11-3.6-2.5-7.5-3.7-11.9-3.7h-107.8c-7.4,0-14-1.8-19.8-5.4-5.8-3.6-10.1-8.7-12.8-15.2-2-4.6-3-11.2-3-19.8s3.3-19.1,10-25.9c6.7-6.7,15.2-10.1,25.6-10.1h107c9.4,0,17.3,2.8,23.8,8.3,6.5,5.5,10.3,12.8,11.4,21.7h-21.5c-1.7-8.7-7.4-13-17-13h-99.9c-5.7,0-9.9,1.3-12.6,3.9-2.7,2.6-4.3,6.7-4.7,12.3-.1,1.8-.2,4.8-.2,8.7,0,11.7,5.8,17.5,17.5,17.5h107.6c10.5,0,19.1,3.3,25.8,9.9,6.7,6.6,10,15.2,10,25.9s-1,17.3-3,22.2c-2.7,6.8-7,12-12.8,15.7-5.8,3.6-12.5,5.4-20,5.4h-111.2Z"/>
    <path class="cls-1" d="M182.7,194.1h65.4v.4c-1,9.9-3.8,19.4-8.4,28.4-4.6,9-10.6,16.8-18.1,23.5-7.5,6.6-16.3,11.9-26.5,15.8-10.2,3.9-21.2,5.9-33.2,5.9s-25.7-2.7-38.1-8c-12.5-5.3-23.6-12.8-33.4-22.3-9.8-9.5-17.7-20.9-23.6-34.1-6-13.2-9-27.7-9-43.5s2.7-29.9,8.2-43.1c5.5-13.2,13-24.7,22.7-34.5,9.7-9.8,21-17.5,34.1-23.1,13.1-5.6,27.3-8.4,42.5-8.4,33.8,0,62.5,15.6,86.2,46.9l30.9-29.4c-9.1-10.4-18.3-19.3-27.4-26.7-9.1-7.4-18.5-13.5-28-18.3-9.5-4.8-19.4-8.3-29.7-10.5-10.3-2.2-21.2-3.2-32.6-3.2-20.6,0-40,3.8-58.3,11.4-18.3,7.6-34.3,18.2-47.8,31.6-13.6,13.5-24.3,29.4-32.2,47.7-7.9,18.3-11.8,38.1-11.8,59.5s3.8,39.5,11.4,57.6c7.6,18,18,33.8,31.3,47.3,13.2,13.5,28.7,24.1,46.5,31.8,17.8,7.8,36.8,11.6,57.2,11.6s39.2-3.5,55.9-10.5c16.6-7,30.7-16.8,42.3-29.5,11.6-12.7,20.5-28,26.9-45.9,6.4-17.9,9.5-37.8,9.5-59.7v-9.5l-112.7,40.8Z"/>
    <path class="cls-1" d="M514.6,8.7h-1.1l-137.1,294.4h44.8l30.5-67.3,18-39.3,17.6-39c4.2-9.3,8.4-18.7,12.7-28.1,4.3-9.4,8.5-18.8,12.7-28.1,3.7,9.3,7.5,18.6,11.4,27.7,3.9,9.2,8,18.4,12.1,27.7l17.3,39.7,16.9,39.3,29.4,67.3h45.9L514.6,8.7Z"/>
  </g>
  <polygon class="cls-1" points="760.1 303.1 760.1 15.7 803.6 15.7 803.6 262.3 888.2 262.3 888.2 303.1 760.1 303.1"/>
  <path class="cls-1" d="M1127,8.7h-1.1l-137.1,294.4h44.8l30.5-67.3,18-39.3,17.6-39c4.2-9.3,8.4-18.7,12.7-28.1,4.3-9.4,8.5-18.8,12.7-28.1,3.7,9.3,7.5,18.6,11.4,27.7,3.9,9.2,8,18.4,12.1,27.7l17.3,39.7,16.9,39.3,29.4,67.3h45.9L1127,8.7Z"/>
  <polygon class="cls-1" points="1338.5 303.1 1428.8 152.2 1349.9 15.7 1399.1 15.7 1454 119.4 1511.6 15.7 1561.5 15.7 1478.4 152.2 1565.3 303.1 1516.9 303.1 1453.2 185.7 1387.6 303.1 1338.5 303.1"/>
  <polygon class="cls-1" points="1822.6 15.7 1756.7 133.8 1690.7 15.7 1641.2 15.7 1735 178.8 1735 303.1 1778 303.1 1778 178.8 1872.6 15.7 1822.6 15.7"/>
</svg>