<?xml version="1.0" encoding="UTF-8"?>
<svg id="Layer_1" data-name="Layer 1" xmlns="http://www.w3.org/2000/svg" version="1.1" viewBox="0 0 400 400">
  <defs>
    <style>
      .cls-1 {
        fill: #fff;
        stroke-width: 0px;
      }
    </style>
  </defs>
  <path class="cls-1" d="M196.1,394c38.5,0,74.5-11.4,104.8-30.7-1.6.8-3.1,1.4-4.8,2.2-20.1,8.4-42.6,12.6-67.3,12.6s-47.5-4.7-68.9-14c-21.5-9.4-40.2-22.1-56.1-38.3-15.9-16.2-28.5-35.2-37.7-57.1-9.2-21.8-13.7-44.9-13.7-69.4s4.7-49.7,14.2-71.7c9.5-22.1,22.4-41.2,38.8-57.5,16.4-16.2,35.7-29,57.7-38.2,22.1-9.2,45.5-13.9,70.3-13.9s27,1.2,39.3,3.9c.3,0,.5,0,.8.2-23.7-10.3-49.7-16.1-77.2-16.1C89,6,2.2,92.8,2.2,199.9s86.8,193.9,193.9,193.9v.2Z"/>
  <path class="cls-1" d="M182.9,77.7c-15.7,6.7-29.5,16.1-41.2,27.7-11.7,11.8-20.7,25.7-27.3,41.6s-9.8,33.2-9.8,51.9,3.6,36.5,10.8,52.4c7.2,15.9,16.7,29.6,28.5,41.2,11.8,11.5,25.3,20.4,40.2,27,15,6.4,30.4,9.7,46,9.7s27.7-2.3,40.1-7.2c12.3-4.7,22.9-11.1,32-19,9-8,16.4-17.5,21.8-28.2,5.5-10.9,8.9-22.3,10.1-34.3v-.5h-78.9l106.3-38.5h0c0-12.3-1.4-24.2-4.4-35.5l-166.2,58.5,139.2-110.2c-.9-1.1-1.9-2.2-2.8-3.3-.2-.2-.5-.5-.6-.6-1.1-1.2-2.2-2.3-3.4-3.6-4.1-4.1-11.1-9.8-16.5-14.2-8.1-6.4-17-12-26.7-16.1-14.3-6.1-29.6-9-46-9s-35.5,3.4-51.3,10.1v.2Z"/>
  <polygon class="cls-1" points="390.3 137.1 397.8 110.8 371.6 103.3 280 175.9 390.3 137.1"/>
</svg>